<?xml version="1.0" encoding="utf-8"?>
<svg viewBox="172.669 244.651 206.918 42.471" width="206.918" height="42.471" xmlns="http://www.w3.org/2000/svg">
  <path d="M 153.36679077148438 232.93101501464844 L 145.93124389648438 232.93101501464844 L 145.93124389648438 247.72300720214844 L 139.26034545898438 247.72300720214844 L 139.26034545898438 209.33238220214844 L 152.76034545898438 209.33238220214844 Q 159.40487670898438 209.33238220214844 163.01718139648438 212.31187438964844 Q 166.62948608398438 215.29136657714844 166.62948608398438 220.93394470214844 Q 166.62948608398438 224.78355407714844 164.77059936523438 227.38072204589844 Q 162.91171264648438 229.97789001464844 159.58944702148438 231.37535095214844 L 168.21151733398438 247.38023376464844 L 168.21151733398438 247.72300720214844 L 161.06600952148438 247.72300720214844 Z M 145.93124389648438 227.57847595214844 L 152.78671264648438 227.57847595214844 Q 156.16171264648438 227.57847595214844 158.06015014648438 225.87779235839844 Q 159.95858764648438 224.17710876464844 159.95858764648438 221.22398376464844 Q 159.95858764648438 218.13902282714844 158.20516967773438 216.45152282714844 Q 156.45175170898438 214.76402282714844 152.97128295898438 214.71128845214844 L 145.93124389648438 214.71128845214844 Z M 189.3780517578125 247.72300720214844 Q 188.9561767578125 246.90562438964844 188.6397705078125 245.05992126464844 Q 185.5811767578125 248.25035095214844 181.1514892578125 248.25035095214844 Q 176.8536376953125 248.25035095214844 174.1378173828125 245.79820251464844 Q 171.4219970703125 243.34605407714844 171.4219970703125 239.73374938964844 Q 171.4219970703125 235.17222595214844 174.8101806640625 232.73326110839844 Q 178.1983642578125 230.29429626464844 184.5001220703125 230.29429626464844 L 188.4288330078125 230.29429626464844 L 188.4288330078125 228.42222595214844 Q 188.4288330078125 226.20738220214844 187.1895751953125 224.87583923339844 Q 185.9503173828125 223.54429626464844 183.4190673828125 223.54429626464844 Q 181.2305908203125 223.54429626464844 179.8331298828125 224.63853454589844 Q 178.4356689453125 225.73277282714844 178.4356689453125 227.42027282714844 L 172.0284423828125 227.42027282714844 Q 172.0284423828125 225.07359313964844 173.5841064453125 223.03013610839844 Q 175.1397705078125 220.98667907714844 177.8160400390625 219.82652282714844 Q 180.4923095703125 218.66636657714844 183.7882080078125 218.66636657714844 Q 188.7979736328125 218.66636657714844 191.7774658203125 221.18443298339844 Q 194.7569580078125 223.70249938964844 194.8360595703125 228.26402282714844 L 194.8360595703125 241.13121032714844 Q 194.8360595703125 244.98081970214844 195.9171142578125 247.27476501464844 L 195.9171142578125 247.72300720214844 Z M 182.3380126953125 243.10874938964844 Q 184.2364501953125 243.10874938964844 185.9107666015625 242.18589782714844 Q 187.5850830078125 241.26304626464844 188.4288330078125 239.70738220214844 L 188.4288330078125 234.32847595214844 L 184.9747314453125 234.32847595214844 Q 181.4151611328125 234.32847595214844 179.6221923828125 235.56773376464844 Q 177.8292236328125 236.80699157714844 177.8292236328125 239.07456970214844 Q 177.8292236328125 240.92027282714844 179.0552978515625 242.01451110839844 Q 180.2813720703125 243.10874938964844 182.3380126953125 243.10874938964844 Z M 209.57177734375 212.25914001464844 L 209.57177734375 219.19371032714844 L 214.60791015625 219.19371032714844 L 214.60791015625 223.93980407714844 L 209.57177734375 223.93980407714844 L 209.57177734375 239.86558532714844 Q 209.57177734375 241.50035095214844 210.2177734375 242.22544860839844 Q 210.86376953125 242.95054626464844 212.52490234375 242.95054626464844 Q 213.63232421875 242.95054626464844 214.76611328125 242.68687438964844 L 214.76611328125 247.64390563964844 Q 212.57763671875 248.25035095214844 210.54736328125 248.25035095214844 Q 203.16455078125 248.25035095214844 203.16455078125 240.10289001464844 L 203.16455078125 223.93980407714844 L 198.47119140625 223.93980407714844 L 198.47119140625 219.19371032714844 L 203.16455078125 219.19371032714844 L 203.16455078125 212.25914001464844 Z M 232.06710815429688 248.25035095214844 Q 225.97628784179688 248.25035095214844 222.19259643554688 244.41392517089844 Q 218.40890502929688 240.57749938964844 218.40890502929688 234.19664001464844 L 218.40890502929688 233.40562438964844 Q 218.40890502929688 229.13414001464844 220.05685424804688 225.77232360839844 Q 221.70480346679688 222.41050720214844 224.68429565429688 220.53843688964844 Q 227.66378784179688 218.66636657714844 231.32882690429688 218.66636657714844 Q 237.15597534179688 218.66636657714844 240.33322143554688 222.38414001464844 Q 243.51046752929688 226.10191345214844 243.51046752929688 232.90464782714844 L 243.51046752929688 235.48863220214844 L 224.86886596679688 235.48863220214844 Q 225.15890502929688 239.02183532714844 227.22872924804688 241.07847595214844 Q 229.29855346679688 243.13511657714844 232.43624877929688 243.13511657714844 Q 236.83956909179688 243.13511657714844 239.60812377929688 239.57554626464844 L 243.06222534179688 242.87144470214844 Q 241.34835815429688 245.42906188964844 238.48751831054688 246.83970642089844 Q 235.62667846679688 248.25035095214844 232.06710815429688 248.25035095214844 Z M 231.30245971679688 223.80796813964844 Q 228.66574096679688 223.80796813964844 227.04415893554688 225.65367126464844 Q 225.42257690429688 227.49937438964844 224.97433471679688 230.79527282714844 L 237.18234252929688 230.79527282714844 L 237.18234252929688 230.32066345214844 Q 236.97140502929688 227.10386657714844 235.46847534179688 225.45591735839844 Q 233.96554565429688 223.80796813964844 231.30245971679688 223.80796813964844 Z" style="fill: rgb(51, 51, 51); white-space: pre;" transform="matrix(1, 0, 0, 1, 33.40867, 38.872091)"/>
  <path d="M 282.8168487548828 246.0070037841797 L 274.9066925048828 246.0070037841797 L 274.9066925048828 229.5538787841797 L 259.4818878173828 229.5538787841797 L 259.4818878173828 246.0070037841797 L 251.5717315673828 246.0070037841797 L 251.5717315673828 207.6163787841797 L 259.4818878173828 207.6163787841797 L 259.4818878173828 223.1730194091797 L 274.9066925048828 223.1730194091797 L 274.9066925048828 207.6163787841797 L 282.8168487548828 207.6163787841797 Z" style="fill: rgb(243, 146, 8); white-space: pre;" transform="matrix(1, 0, 0, 1, 33.40867, 38.872091)"/>
  <path d="M 308.42340087890625 243.48410034179688 Q 305.60211181640625 246.80636596679688 300.40777587890625 246.80636596679688 Q 295.76715087890625 246.80636596679688 293.38092041015625 244.09054565429688 Q 290.99468994140625 241.37472534179688 290.99468994140625 236.23312377929688 L 290.99468994140625 217.74972534179688 L 297.40191650390625 217.74972534179688 L 297.40191650390625 236.15402221679688 Q 297.40191650390625 241.58566284179688 301.91070556640625 241.58566284179688 Q 306.57769775390625 241.58566284179688 308.21246337890625 238.23703002929688 L 308.21246337890625 217.74972534179688 L 314.61968994140625 217.74972534179688 L 314.61968994140625 246.27902221679688 L 308.58160400390625 246.27902221679688 Z M 346.1784362792969 232.30441284179688 Q 346.1784362792969 238.94894409179688 343.2121276855469 242.87765502929688 Q 340.2458190917969 246.80636596679688 335.0514831542969 246.80636596679688 Q 330.0417175292969 246.80636596679688 327.2467956542969 243.19406127929688 L 326.9303894042969 246.27902221679688 L 321.1296081542969 246.27902221679688 L 321.1296081542969 205.77902221679688 L 327.5368347167969 205.77902221679688 L 327.5368347167969 220.49191284179688 Q 330.3053894042969 217.22238159179688 334.9987487792969 217.22238159179688 Q 340.2194519042969 217.22238159179688 343.1989440917969 221.09835815429688 Q 346.1784362792969 224.97433471679688 346.1784362792969 231.93527221679688 Z M 339.7712097167969 231.75070190429688 Q 339.7712097167969 227.11007690429688 338.1364440917969 224.78976440429688 Q 336.5016784667969 222.46945190429688 333.3903503417969 222.46945190429688 Q 329.2243347167969 222.46945190429688 327.5368347167969 226.10812377929688 L 327.5368347167969 237.86788940429688 Q 329.2507019042969 241.58566284179688 333.4430847167969 241.58566284179688 Q 336.4489440917969 241.58566284179688 338.0837097167969 239.34445190429688 Q 339.7184753417969 237.10324096679688 339.7712097167969 232.56808471679688 Z" style="fill: rgb(51, 51, 51); white-space: pre;" transform="matrix(1, 0, 0, 1, 33.40867, 38.872091)"/>
</svg>